<?xml version="1.0" encoding="UTF-8" standalone="no"?>
<!-- Created with Inkscape (http://www.inkscape.org/) -->

<svg
   width="42.400463mm"
   height="42.400463mm"
   viewBox="0 0 42.400463 42.400463"
   version="1.1"
   id="svg1"
   xml:space="preserve"
   xmlns:inkscape="http://www.inkscape.org/namespaces/inkscape"
   xmlns:sodipodi="http://sodipodi.sourceforge.net/DTD/sodipodi-0.dtd"
   xmlns="http://www.w3.org/2000/svg"
   xmlns:svg="http://www.w3.org/2000/svg"><sodipodi:namedview
     id="namedview1"
     pagecolor="#ffffff"
     bordercolor="#000000"
     borderopacity="0.25"
     inkscape:showpageshadow="2"
     inkscape:pageopacity="0.0"
     inkscape:pagecheckerboard="0"
     inkscape:deskcolor="#d1d1d1"
     inkscape:document-units="mm"><inkscape:page
       x="0"
       y="0"
       width="42.400463"
       height="42.400463"
       id="page2"
       margin="0"
       bleed="0" /></sodipodi:namedview><defs
     id="defs1" /><g
     inkscape:groupmode="layer"
     id="layer2"
     inkscape:label="Layer 2"
     transform="translate(-88.504145,-78.10914)"><path
       style="display:inline;fill:#ffffff;fill-opacity:1;stroke:none;stroke-width:0.324;stroke-opacity:1"
       id="path2"
       sodipodi:type="arc"
       sodipodi:cx="109.70438"
       sodipodi:cy="99.309372"
       sodipodi:rx="21.200232"
       sodipodi:ry="21.200232"
       sodipodi:start="0"
       sodipodi:end="6.2607913"
       sodipodi:open="true"
       sodipodi:arc-type="arc"
       d="M 130.90461,99.309372 A 21.200232,21.200232 0 0 1 109.82307,120.50927 21.200232,21.200232 0 0 1 88.505474,99.546746 21.200232,21.200232 0 0 1 109.34832,78.112131 21.200232,21.200232 0 0 1 130.89929,98.834653"
       inkscape:export-filename="diversity.png"
       inkscape:export-xdpi="613.42725"
       inkscape:export-ydpi="613.42725" /></g><g
     inkscape:label="Layer 1"
     inkscape:groupmode="layer"
     id="layer1"
     transform="translate(-88.504145,-78.10914)"><g
       style="fill:#13b6ec;fill-opacity:1"
       id="g1"
       transform="matrix(0.0330729,0,0,0.0330729,93.829371,114.52288)"><path
         d="m 38,-428 q -18,-36 -28,-73 -10,-37 -10,-75 0,-112 76,-188 76,-76 188,-76 63,0 120,26.5 57,26.5 96,73.5 39,-47 96,-73.5 57,-26.5 120,-26.5 112,0 188,76 76,76 76,188 0,38 -10,75 -10,37 -28,73 -11,-19 -26,-34 -15,-15 -35,-24 9,-23 14,-45 5,-22 5,-45 0,-78 -53,-131 -53,-53 -131,-53 -81,0 -124.5,44.5 Q 528,-671 480,-616 432,-672 388.5,-716 345,-760 264,-760 q -78,0 -131,53 -53,53 -53,131 0,23 5,45 5,22 14,45 -20,9 -35,24 -15,15 -26,34 z M 0,-80 v -63 Q 0,-187 44.5,-213.5 89,-240 160,-240 q 13,0 25,0.5 12,0.5 23,2.5 -14,20 -21,43 -7,23 -7,49 v 65 z m 240,0 v -65 q 0,-65 66.5,-105 66.5,-40 173.5,-40 108,0 174,40 66,40 66,105 v 65 z m 540,0 v -65 q 0,-26 -6.5,-49 -6.5,-23 -19.5,-43 11,-2 22.5,-2.5 11.5,-0.5 23.5,-0.5 72,0 116,26.5 44,26.5 44,70.5 v 63 z M 480,-210 q -57,0 -102,15 -45,15 -53,35 h 311 q -9,-20 -53.5,-35 Q 538,-210 480,-210 Z m -320,-70 q -33,0 -56.5,-23.5 Q 80,-327 80,-360 q 0,-34 23.5,-57 23.5,-23 56.5,-23 34,0 57,23 23,23 23,57 0,33 -23,56.5 -23,23.5 -57,23.5 z m 640,0 q -33,0 -56.5,-23.5 Q 720,-327 720,-360 q 0,-34 23.5,-57 23.5,-23 56.5,-23 34,0 57,23 23,23 23,57 0,33 -23,56.5 -23,23.5 -57,23.5 z m -320,-40 q -50,0 -85,-35 -35,-35 -35,-85 0,-51 35,-85.5 35,-34.5 85,-34.5 51,0 85.5,34.5 34.5,34.5 34.5,85.5 0,50 -34.5,85 -34.5,35 -85.5,35 z m 0,-160 q -17,0 -28.5,11.5 -11.5,11.5 -11.5,28.5 0,17 11.5,28.5 11.5,11.5 28.5,11.5 17,0 28.5,-11.5 Q 520,-423 520,-440 520,-457 508.5,-468.5 497,-480 480,-480 Z m 0,40 z m 1,280 z"
         id="path1"
         style="fill:#13b6ec;fill-opacity:1" /></g></g></svg>
